<svg xmlns="http://www.w3.org/2000/svg" viewBox="0 0 139.33 139.349"><defs><style>.a{fill:#3d8bff;}.b{fill:#fff;}.c{fill:#e8bb3c;}.d{fill:#e0a423;}.e{fill:#ba691c;}.f{fill:#edc72e;}</style></defs><path class="a" d="M.5,213.423a25.174,25.174,0,0,0,23.747,25.132L.5,189.08Z" transform="translate(-0.5 -99.268)"/><path class="a" d="M28.054,99.986c1.183.385,38.821-77.044,41.9-83.361V16.2l.1.209.1-.209v.418c2.964,6.284,39.539,83.77,40.7,83.385.67-.223,15.713-33.031,28.975-62.224V25.175A25.175,25.175,0,0,0,114.655,0H25.675A25.175,25.175,0,0,0,.5,25.175V40.9C13.4,69.249,27.408,99.749,28.054,99.986Z" transform="translate(-0.5)"/><path class="a" d="M60.27,217.524h80.649L100.6,148.94Z" transform="translate(-31.642 -78.194)"/><path class="a" d="M240.83,235.312h0A25.175,25.175,0,0,0,266,210.137V182.82Z" transform="translate(-126.675 -95.982)"/><path class="b" d="M139.83,55.659c-13.267,29.184-28.31,61.991-28.975,62.224-1.159.385-37.734-77.1-40.7-83.385V34.08l-.1.209-.1-.209v.437c-3.078,6.317-40.716,83.746-41.9,83.361C27.408,117.641,13.4,87.142.5,58.794v48.924L24.25,157.2q.712.043,1.425.043h3.458L69.455,88.652l40.322,68.589h4.878L139.83,104.75Z" transform="translate(-0.5 -17.892)"/><path class="c" d="M95.626,113.191c-7.666,0-13.585-2.294-17.689-6.883-8.455-9.3-8.935-20.425-5.795-25.36,3.624-5.434,19.318-1.629,19.318-1.629a2.1,2.1,0,0,1,2.175,1.99,2.066,2.066,0,0,1-2.175,2.052s-12.435-2.413-15.2,0c-3.14,2.717-.6,14.069,5.073,20.349q4.892,5.434,14.307,5.434a2.014,2.014,0,0,1,2.052,1.933,2.047,2.047,0,0,1-2.114,2.052Z" transform="translate(-37.178 -40.963)"/><path class="c" d="M120.05,149.9a2.57,2.57,0,0,1-5.13,0,2.631,2.631,0,0,1,2.6-2.413,2.574,2.574,0,0,1,2.532,2.413Z" transform="translate(-60.571 -77.433)"/><path class="d" d="M105.108,113.433v-.6a1.776,1.776,0,0,0,1.026-1.691,2.076,2.076,0,0,0-2.114-1.99c-5.192,0-9.357-1.33-12.5-3.743l-.119,1.81a9.832,9.832,0,0,0,.6,3.325,25.844,25.844,0,0,0,8.075,2.413l-.119.475a2.5,2.5,0,0,0,2.6,2.413,2.451,2.451,0,0,0,2.546-2.408ZM86.583,82.639c3.985-.95,11.775.423,13.1.6a6.132,6.132,0,0,0-1.99-4.346,49.192,49.192,0,0,0-8.213-.845,6.978,6.978,0,0,0-3.021,4.527Zm37.658,30.552c7.548,0,13.466-2.294,17.508-6.883,8.455-9.3,9.058-20.425,5.918-25.36-3.5-5.434-19.318-1.629-19.318-1.629a2.023,2.023,0,1,0,0,4.047s12.435-2.413,15.276,0c3.14,2.717.6,14.069-5.073,20.349-3.2,3.624-8.032,5.434-14.25,5.434a2,2,0,1,0,0,3.985Z" transform="translate(-45.63 -40.963)"/><ellipse class="d" cx="2.598" cy="2.413" rx="2.598" ry="2.413" transform="translate(77.467 70.119)"/><path class="e" d="M176.041,105.5c-3.021,2.413-7.244,3.743-12.435,3.743a2.047,2.047,0,0,0-2.175,1.933,2.161,2.161,0,0,0,1.088,1.81v.6a2.536,2.536,0,0,0,5.073,0v-.6a25.517,25.517,0,0,0,6.65-1.691,13.3,13.3,0,0,0,1.81-5.857Zm-8.331-22.04s11.11-2.175,14.673-.361V82.62a7.7,7.7,0,0,0-1.206-4.227c-5.795-.784-13.466,1.026-13.466,1.026a2.475,2.475,0,0,0-1.33.423A8.236,8.236,0,0,0,165.9,82.5,2.209,2.209,0,0,0,167.709,83.456Z" transform="translate(-84.989 -41.053)"/><path class="d" d="M142.891,171.311c0-4.1-13.585.6-13.585-27.35,0-.907-1.81-1.691-3.862-1.691s-3.8.727-3.8,1.629c0,27.773-13.585,23.246-13.585,27.412v6.037H142.9Z" transform="translate(-56.97 -74.693)"/><path class="e" d="M151.14,201.852h14.369v-5.918c0-2.413-4.831-1.81-8.754-6.764L151.14,191.1Z" transform="translate(-79.587 -99.315)"/><path class="c" d="M130.572,143.961c0-.907-1.81-1.691-3.862-1.691s-3.862.727-3.862,1.629c0,22.762-9.058,23.849-12.378,25.783h32.48c-3.325-1.81-12.378-3.021-12.378-25.783Z" transform="translate(-58.235 -74.693)"/><path class="d" d="M160.963,170.479c-3.325-1.81-12.378-3.021-12.378-25.783a1.382,1.382,0,0,0-.784-1.026l-3.021,2.717v24.149h16.178Z" transform="translate(-76.248 -75.428)"/><path class="e" d="M135.5,154.879l9.5,4.227a59.709,59.709,0,0,1-1.206-11.875,16.241,16.241,0,0,1-3.862-.361,15.737,15.737,0,0,0-3.862.6,54.375,54.375,0,0,1-.475,7.486Z" transform="translate(-71.376 -77.094)"/><path class="c" d="M100.29,82.85c0,16.905,6.944,32.722,21.132,32.722,14.069,0,21.009-15.817,21.009-32.722V74.4H100.29Z" transform="translate(-52.89 -39.06)"/><path class="d" d="M160.125,82.85V74.4H134v32.3a12.5,12.5,0,0,0,4.831,8.873h.242c14.126,0,21.132-15.817,21.132-32.722Z" transform="translate(-70.588 -39.06)"/><path class="d" d="M100.29,62.58h42.137v5.676H100.29Z" transform="translate(-52.89 -32.855)"/><path class="c" d="M100.29,76.94h42.137v1.33H100.29Z" transform="translate(-52.89 -40.394)"/><path class="d" d="M104.23,215.87h38.641v8.137H104.23Z" transform="translate(-54.959 -113.333)"/><path class="c" d="M127.764,140.707a.8.8,0,0,1-.784.784H115.746a.855.855,0,0,1-.784-.845v-2.6a.855.855,0,0,1,.845-.784h11.229a.788.788,0,0,1,.727.784V140.7Zm.784-78.127H100.29v5.676h25.175a17.162,17.162,0,0,0,3.021-5.676Z" transform="translate(-52.89 -32.855)"/><path class="f" d="M141.157,87.125a16.221,16.221,0,0,1-4.949-2.175,15.727,15.727,0,0,1-4.949,2.175l-2.655.6a19,19,0,0,0,.475,5.676,7.018,7.018,0,0,0,.242,1.088c1.33,4.831,4.047,8.27,6.883,9.177,2.85-.907,5.553-4.408,6.883-9.177l.3-1.088a19.081,19.081,0,0,0,.423-5.738,14.036,14.036,0,0,1-2.655-.6Z" transform="translate(-67.732 -44.599)"/><path class="c" d="M152.265,87.667a14.037,14.037,0,0,1-2.655-.6,14.939,14.939,0,0,1-4.949-2.114v18.715c2.85-.907,5.553-4.408,6.883-9.177l.3-1.088A19.08,19.08,0,0,0,152.265,87.667Z" transform="translate(-76.185 -44.599)"/></svg>