<svg xmlns="http://www.w3.org/2000/svg" viewBox="0 0 30 30.33"><g id="Layer_2" data-name="Layer 2"><g id="Layer_1-2" data-name="Layer 1"><path d="M11.57,16a3.39,3.39,0,0,0-1.3-.22H7.07v3.42h3.16A3.09,3.09,0,0,0,11.54,19a1.61,1.61,0,0,0,.86-1.6A1.38,1.38,0,0,0,11.57,16Z" style="fill:#fff"/><path d="M20.75,13.72a2,2,0,0,0-1.5.55,2.52,2.52,0,0,0-.67,1.47h4.34a2.16,2.16,0,0,0-.67-1.51A2.27,2.27,0,0,0,20.75,13.72Z" style="fill:#fff"/><path d="M11.61,13.33a1.21,1.21,0,0,0,.53-1.13,1.17,1.17,0,0,0-.7-1.19,5.14,5.14,0,0,0-1.54-.2H7.07v2.84h3.16A2.71,2.71,0,0,0,11.61,13.33Z" style="fill:#fff"/><path d="M29.33,5a4,4,0,0,0-1.17-2.82A4.09,4.09,0,0,0,25.33,1,53.87,53.87,0,0,0,14.67,0a53.32,53.32,0,0,0-10,1A4,4,0,0,0,1.84,2.18,4.08,4.08,0,0,0,.67,5a79.65,79.65,0,0,0,0,20.66,4,4,0,0,0,1.17,2.83,4.11,4.11,0,0,0,2.83,1.17,78,78,0,0,0,10,.67,78.76,78.76,0,0,0,10.66-.67,4.7,4.7,0,0,0,4-4A78.76,78.76,0,0,0,30,15,80,80,0,0,0,29.33,5ZM17.93,9.18H23.5v1.6H17.93ZM14.57,19.59a3.6,3.6,0,0,1-.93,1,3.52,3.52,0,0,1-1.47.65,9.52,9.52,0,0,1-1.84.17H4.47V8.58h6.29A4,4,0,0,1,14.13,10a3.24,3.24,0,0,1,.6,2,2.82,2.82,0,0,1-.6,1.89,3.12,3.12,0,0,1-1,.73,2.9,2.9,0,0,1,1.51,1.14,3.32,3.32,0,0,1,.51,1.88A3.74,3.74,0,0,1,14.57,19.59Zm11-2.22h-7a2.28,2.28,0,0,0,1,2,2.68,2.68,0,0,0,1.39.35,2.17,2.17,0,0,0,1.4-.43,2.32,2.32,0,0,0,.52-.65h2.56a3.05,3.05,0,0,1-.93,1.71,4.72,4.72,0,0,1-3.62,1.39,5.29,5.29,0,0,1-3.39-1.17A4.57,4.57,0,0,1,16,16.78,5.09,5.09,0,0,1,17.31,13a4.69,4.69,0,0,1,3.44-1.31,5.62,5.62,0,0,1,2.26.44,3.83,3.83,0,0,1,1.66,1.41,4.46,4.46,0,0,1,.77,2A11.72,11.72,0,0,1,25.53,17.37Z" style="fill:#fff"/></g></g></svg>