<svg xmlns="http://www.w3.org/2000/svg" viewBox="0 0 30 30.33"><g id="Layer_2" data-name="Layer 2"><g id="Layer_1-2" data-name="Layer 1"><circle cx="14.89" cy="15.03" r="2.76" style="fill:#fff"/><path d="M29.33,5a4,4,0,0,0-1.17-2.82A4.09,4.09,0,0,0,25.33,1,53.87,53.87,0,0,0,14.67,0a53.32,53.32,0,0,0-10,1A4,4,0,0,0,1.84,2.18,4.08,4.08,0,0,0,.67,5a79.65,79.65,0,0,0,0,20.66,4,4,0,0,0,1.17,2.83,4.11,4.11,0,0,0,2.83,1.17,78,78,0,0,0,10,.67,78.76,78.76,0,0,0,10.66-.67,4.7,4.7,0,0,0,4-4A78.76,78.76,0,0,0,30,15,80,80,0,0,0,29.33,5Zm-3.4,11.24c-.35,2.61-2.28,4.36-4.14,4.31A4,4,0,0,1,19,19a.48.48,0,0,0-.33-.14.54.54,0,0,0-.34.14,3,3,0,0,1-.7.81,3.16,3.16,0,0,1-1.67.64,6.93,6.93,0,0,1-1.07.1,5.52,5.52,0,0,1,0-11,5,5,0,0,1,2,.37c.75.34.84.67,1.47.78.81.13,1.27-.29,1.67,0a1.17,1.17,0,0,1,.33,1c0,1.58.06,3.16.08,4.74a1.38,1.38,0,0,0,1.38,1.38,1.42,1.42,0,0,0,1.38-1.55V15A8.28,8.28,0,1,0,19,22.2a1.42,1.42,0,0,1,1.7.54,1.4,1.4,0,0,1-.32,1.85A11,11,0,1,1,25.93,15Z" style="fill:#fff"/></g></g></svg>