<svg xmlns="http://www.w3.org/2000/svg" viewBox="0 0 30 30.33"><g id="Layer_2" data-name="Layer 2"><g id="Layer_1-2" data-name="Layer 1"><path d="M29.33,5a4,4,0,0,0-1.17-2.82A4.09,4.09,0,0,0,25.33,1,53.87,53.87,0,0,0,14.67,0a53.32,53.32,0,0,0-10,1A4,4,0,0,0,1.84,2.18,4.08,4.08,0,0,0,.67,5a79.65,79.65,0,0,0,0,20.66,4,4,0,0,0,1.17,2.83,4.11,4.11,0,0,0,2.83,1.17,78,78,0,0,0,10,.67,78.76,78.76,0,0,0,10.66-.67,4.7,4.7,0,0,0,4-4A78.76,78.76,0,0,0,30,15,80,80,0,0,0,29.33,5ZM17.66,26.51V21.82a2.91,2.91,0,0,0-.83-2.07h0c3-.44,4.13-2,4.59-3.25a5.42,5.42,0,0,0-.85-5.13,4.33,4.33,0,0,0-.13-2.9c-.61.2-.53-.26-2.83,1.14l-.09,0h-.11A9.47,9.47,0,0,0,15,9.3a9.55,9.55,0,0,0-2.38.33c-.13,0-.09.06-.22,0l-.32-.19a4.61,4.61,0,0,0-2.52-.95,4.38,4.38,0,0,0-.13,2.9.2.2,0,0,1,0,.14,5.21,5.21,0,0,0-.8,5c.46,1.24,1.64,2.81,4.59,3.25h0a3.15,3.15,0,0,0-.78,1.6,1.82,1.82,0,0,1-1.11.09,1.46,1.46,0,0,1-.86-.73,3.57,3.57,0,0,0-1-1.12A2.43,2.43,0,0,0,8,19.2a.68.68,0,0,0,.12,1.32c.48,0,.93.44,1.19.87a2.71,2.71,0,0,0,3.06,1.36v3.76A11.78,11.78,0,0,1,3.66,15.17a11.34,11.34,0,0,1,22.68,0A11.78,11.78,0,0,1,17.66,26.51Z" style="fill:#fff"/></g></g></svg>