<svg xmlns="http://www.w3.org/2000/svg" viewBox="0 0 30 30.33"><g id="Layer_2" data-name="Layer 2"><g id="Layer_1-2" data-name="Layer 1"><path d="M29.33,5a4,4,0,0,0-1.17-2.82A4.09,4.09,0,0,0,25.33,1,53.87,53.87,0,0,0,14.67,0a53.32,53.32,0,0,0-10,1A4,4,0,0,0,1.84,2.18,4.08,4.08,0,0,0,.67,5a79.65,79.65,0,0,0,0,20.66,4,4,0,0,0,1.17,2.83,4.11,4.11,0,0,0,2.83,1.17,78,78,0,0,0,10,.67,78.76,78.76,0,0,0,10.66-.67,4.7,4.7,0,0,0,4-4A78.76,78.76,0,0,0,30,15,80,80,0,0,0,29.33,5ZM7.15,5.11A2.2,2.2,0,1,1,5,7.31,2.21,2.21,0,0,1,7.15,5.11ZM9.44,25H5V11.12H9.44Zm15.61.27H20.56v-8.8c-1.44-3.47-4.83,1.26-4.83,1.26v7.54h-4.5V11.4h4.5V14a6.22,6.22,0,0,1,4.83-2.64,3.8,3.8,0,0,1,.8.08l.19,0,.14.05a4.47,4.47,0,0,1,3.36,4.33Z" style="fill:#fff"/></g></g></svg>