<svg xmlns="http://www.w3.org/2000/svg" viewBox="0 0 30 30.33"><g id="Layer_2" data-name="Layer 2"><g id="Layer_1-2" data-name="Layer 1"><path d="M15.05,6.11a9,9,0,0,0-7.6,13.73l.22.34-.91,3.3,3.39-.89.33.2A8.91,8.91,0,0,0,15,24h0a9,9,0,1,0,0-17.93Zm5.27,12.81A2.73,2.73,0,0,1,18.5,20.2a3.71,3.71,0,0,1-1.69-.1,15.43,15.43,0,0,1-1.54-.57,12,12,0,0,1-4.6-4.07,5.2,5.2,0,0,1-1.1-2.79,3,3,0,0,1,.94-2.25,1,1,0,0,1,.72-.33h.51c.17,0,.39-.07.61.46s.76,1.87.83,2a.49.49,0,0,1,0,.47,7.53,7.53,0,0,1-.67.92c-.12.15-.28.28-.12.55a8.14,8.14,0,0,0,1.5,1.87,7.47,7.47,0,0,0,2.17,1.34c.27.13.42.11.58-.07s.67-.79.85-1.06.36-.22.61-.13,1.57.74,1.84.88.45.2.52.31A2.19,2.19,0,0,1,20.32,18.92Z" style="fill:#fff"/><path d="M29.33,5a4,4,0,0,0-1.17-2.82A4.09,4.09,0,0,0,25.33,1,53.87,53.87,0,0,0,14.67,0a53.32,53.32,0,0,0-10,1A4,4,0,0,0,1.84,2.18,4.08,4.08,0,0,0,.67,5a79.65,79.65,0,0,0,0,20.66,4,4,0,0,0,1.17,2.83,4.11,4.11,0,0,0,2.83,1.17,78,78,0,0,0,10,.67,78.76,78.76,0,0,0,10.66-.67,4.7,4.7,0,0,0,4-4A78.76,78.76,0,0,0,30,15,80,80,0,0,0,29.33,5ZM15.05,25.86h0a10.74,10.74,0,0,1-5.15-1.31l-5.72,1.5L5.7,20.46a10.78,10.78,0,0,1,17-13,10.78,10.78,0,0,1-7.62,18.41Z" style="fill:#fff"/></g></g></svg>